<svg xmlns="http://www.w3.org/2000/svg" viewBox="0 0 512 512">
  <defs>
    <linearGradient id="bg" x1="72" y1="54" x2="434" y2="470" gradientUnits="userSpaceOnUse">
      <stop offset="0" stop-color="#3a2a24"/>
      <stop offset="0.48" stop-color="#191321"/>
      <stop offset="1" stop-color="#09070d"/>
    </linearGradient>
    <radialGradient id="glow" cx="0" cy="0" r="1" gradientTransform="translate(372 120) rotate(129.145) scale(306.799 289.197)" gradientUnits="userSpaceOnUse">
      <stop offset="0" stop-color="#ffcf80" stop-opacity=".35"/>
      <stop offset=".52" stop-color="#ffcf80" stop-opacity=".08"/>
      <stop offset="1" stop-color="#ffcf80" stop-opacity="0"/>
    </radialGradient>
    <linearGradient id="gold" x1="146" y1="116" x2="366" y2="370" gradientUnits="userSpaceOnUse">
      <stop offset="0" stop-color="#ffecc4"/>
      <stop offset=".55" stop-color="#ffd98d"/>
      <stop offset="1" stop-color="#dca54c"/>
    </linearGradient>
    <linearGradient id="cardFace" x1="174" y1="152" x2="336" y2="360" gradientUnits="userSpaceOnUse">
      <stop offset="0" stop-color="#d6f1e5"/>
      <stop offset="1" stop-color="#a6d1c8"/>
    </linearGradient>
  </defs>
  <rect width="512" height="512" rx="132" fill="url(#bg)"/>
  <rect width="512" height="512" rx="132" fill="url(#glow)"/>
  <g fill="#f8e4b5" opacity=".78">
    <circle cx="95" cy="126" r="6"/>
    <circle cx="402" cy="92" r="5"/>
    <circle cx="431" cy="196" r="4"/>
    <circle cx="104" cy="344" r="5"/>
    <circle cx="390" cy="390" r="6"/>
    <circle cx="148" cy="412" r="4"/>
    <circle cx="330" cy="82" r="3"/>
  </g>
  <rect x="107" y="86" width="298" height="340" rx="34" fill="#f6ecd7" opacity=".18"/>
  <g transform="translate(152 104) rotate(-8 104 152)">
    <rect x="0" y="0" width="208" height="304" rx="28" fill="#f7eed9"/>
    <rect x="12" y="12" width="184" height="280" rx="22" fill="url(#cardFace)"/>
    <path d="M64 58c0 25-7 40-28 56 21 16 28 31 28 56 0-25 7-40 28-56-21-16-28-31-28-56Zm0 151c0 17-4 28-16 39 12 11 16 22 16 39 0-17 4-28 16-39-12-11-16-22-16-39Z" fill="#20170d"/>
    <path d="M138 154c12-24 34-36 55-36 0 25-15 46-41 58 27 4 48 20 57 43-27 7-53 0-72-20 2 29-11 52-35 67-16-24-17-52-3-75-27 10-55 4-76-16 17-23 43-32 71-26-18-22-22-50-11-77 27 5 47 22 55 47Z" fill="none" stroke="#2a2217" stroke-linecap="round" stroke-linejoin="round" stroke-width="8"/>
  </g>
  <circle cx="387" cy="126" r="28" fill="url(#gold)"/>
  <path d="M387 105c3 12 7 16 19 19-12 3-16 7-19 19-3-12-7-16-19-19 12-3 16-7 19-19Zm18 38c2 7 5 10 12 12-7 2-10 5-12 12-2-7-5-10-12-12 7-2 10-5 12-12Z" fill="#2b1b08"/>
</svg>
