<svg xmlns="http://www.w3.org/2000/svg" viewBox="0 0 64 64">
  <defs>
    <linearGradient id="bg" x1="0" y1="0" x2="1" y2="1">
      <stop offset="0%" stop-color="#1c1530"/>
      <stop offset="100%" stop-color="#09070d"/>
    </linearGradient>
    <linearGradient id="gold" x1="0" y1="0" x2="1" y2="1">
      <stop offset="0%" stop-color="#ffe8b7"/>
      <stop offset="100%" stop-color="#ffcb78"/>
    </linearGradient>
  </defs>
  <rect width="64" height="64" rx="16" fill="url(#bg)"/>
  <rect x="6" y="6" width="52" height="52" rx="14" fill="none" stroke="rgba(255,232,183,0.22)"/>
  <circle cx="32" cy="32" r="16" fill="url(#gold)"/>
  <path
    d="M32 18.5c1.6 6.2 3.9 8.5 10.1 10.1-6.2 1.6-8.5 3.9-10.1 10.1-1.6-6.2-3.9-8.5-10.1-10.1 6.2-1.6 8.5-3.9 10.1-10.1Zm9.7 19.7c.7 2.8 1.8 3.9 4.6 4.6-2.8.7-3.9 1.8-4.6 4.6-.7-2.8-1.8-3.9-4.6-4.6 2.8-.7 3.9-1.8 4.6-4.6Z"
    fill="#2a1806"
  />
</svg>
