<svg width="200" height="200" viewBox="0 0 200 200" fill="none" xmlns="http://www.w3.org/2000/svg">
<rect width="200" height="200" fill="url(#paint0_linear_15158_26218)"/>
<path d="M143.488 100.662L111.25 88.75L99.375 56.4875C98.6718 54.5771 97.3995 52.9283 95.7298 51.7637C94.0601 50.599 92.0733 49.9746 90.0375 49.9746C88.0018 49.9746 86.015 50.599 84.3453 51.7637C82.6756 52.9283 81.4032 54.5771 80.7 56.4875L68.75 88.75L36.4875 100.625C34.5771 101.328 32.9283 102.601 31.7637 104.27C30.5991 105.94 29.9746 107.927 29.9746 109.963C29.9746 111.998 30.5991 113.985 31.7637 115.655C32.9283 117.324 34.5771 118.597 36.4875 119.3L68.75 131.25L80.625 163.512C81.3282 165.423 82.6006 167.072 84.2703 168.236C85.94 169.401 87.9268 170.025 89.9625 170.025C91.9983 170.025 93.9851 169.401 95.6548 168.236C97.3245 167.072 98.5968 165.423 99.3 163.512L111.25 131.25L143.513 119.375C145.423 118.672 147.072 117.399 148.236 115.73C149.401 114.06 150.025 112.073 150.025 110.037C150.025 108.002 149.401 106.015 148.236 104.345C147.072 102.676 145.423 101.403 143.513 100.7L143.488 100.662ZM105.625 122.638C104.946 122.888 104.33 123.282 103.819 123.793C103.307 124.305 102.913 124.921 102.663 125.6L90 159.906L77.3625 125.625C77.1128 124.939 76.7159 124.316 76.1998 123.8C75.6837 123.284 75.0609 122.887 74.375 122.638L40.0938 110L74.375 97.3625C75.0609 97.1128 75.6837 96.7159 76.1998 96.1998C76.7159 95.6837 77.1128 95.0608 77.3625 94.375L90 60.0938L102.638 94.375C102.888 95.0537 103.282 95.67 103.794 96.1815C104.305 96.693 104.921 97.0874 105.6 97.3375L139.906 110L105.625 122.638ZM110 45C110 43.6739 110.527 42.4021 111.464 41.4645C112.402 40.5268 113.674 40 115 40H125V30C125 28.6739 125.527 27.4021 126.464 26.4645C127.402 25.5268 128.674 25 130 25C131.326 25 132.598 25.5268 133.536 26.4645C134.473 27.4021 135 28.6739 135 30V40H145C146.326 40 147.598 40.5268 148.536 41.4645C149.473 42.4021 150 43.6739 150 45C150 46.3261 149.473 47.5979 148.536 48.5355C147.598 49.4732 146.326 50 145 50H135V60C135 61.3261 134.473 62.5979 133.536 63.5355C132.598 64.4732 131.326 65 130 65C128.674 65 127.402 64.4732 126.464 63.5355C125.527 62.5979 125 61.3261 125 60V50H115C113.674 50 112.402 49.4732 111.464 48.5355C110.527 47.5979 110 46.3261 110 45ZM175 75C175 76.3261 174.473 77.5979 173.536 78.5355C172.598 79.4732 171.326 80 170 80H165V85C165 86.3261 164.473 87.5979 163.536 88.5355C162.598 89.4732 161.326 90 160 90C158.674 90 157.402 89.4732 156.464 88.5355C155.527 87.5979 155 86.3261 155 85V80H150C148.674 80 147.402 79.4732 146.464 78.5355C145.527 77.5979 145 76.3261 145 75C145 73.6739 145.527 72.4021 146.464 71.4645C147.402 70.5268 148.674 70 150 70H155V65C155 63.6739 155.527 62.4021 156.464 61.4645C157.402 60.5268 158.674 60 160 60C161.326 60 162.598 60.5268 163.536 61.4645C164.473 62.4021 165 63.6739 165 65V70H170C171.326 70 172.598 70.5268 173.536 71.4645C174.473 72.4021 175 73.6739 175 75Z" fill="black"/>
<defs>
<linearGradient id="paint0_linear_15158_26218" x1="100" y1="0" x2="100" y2="200" gradientUnits="userSpaceOnUse">
<stop stop-color="#FAE5B2"/>
<stop offset="1" stop-color="#F7D58C"/>
</linearGradient>
</defs>
</svg>
